<svg id="Layer_1" data-name="Layer 1" xmlns="http://www.w3.org/2000/svg" xmlns:xlink="http://www.w3.org/1999/xlink"  height="60" viewBox="0 0 280 300"><defs><style>.cls-1{fill:url(#linear-gradient);}</style><linearGradient id="linear-gradient" x1="-109.76" y1="-102.49" x2="-105.16" y2="-102.49" gradientTransform="translate(-3525.26 3992.88) rotate(90) scale(35.76)" gradientUnits="userSpaceOnUse"><stop offset="0" stop-color="#f68a38"/><stop offset="1" stop-color="#ee2e2b"/></linearGradient></defs><title>swift logo</title><path class="cls-1" d="M217.39,181C227.63,140.49,203,93,161.1,67.8c18.61,25.17,26.06,55,19.54,81.55a40.61,40.61,0,0,1-2.32,7c-8-5.55-45.13-28.42-89.79-73.62-1.39-1.4,24.19,36.34,52.57,66.16C127.61,141,89.93,113.93,66.21,92c2.79,4.66,6.51,9.32,10.23,14.45,20,25.63,45.59,56.38,76.75,80.15-21.86,13.51-52.56,14.44-83.73,0-7.91-3.27-14.42-7.92-21.4-13,13,20.5,33,38.68,57.22,48.93,28.84,12.58,58.38,12.72,82.34-1.87,10.23-5.12,30.7-10.72,41.87,10.72,2.32,6.06,7.9-21.9-13-47.53.46-.93.46-1.86.93-2.8Z"/></svg>